<svg xmlns="http://www.w3.org/2000/svg" version="1.1" xmlns:xlink="http://www.w3.org/1999/xlink" xmlns:svgjs="http://svgjs.dev/svgjs" width="2000" height="1758" viewBox="0 0 2000 1758"><g transform="matrix(1,0,0,1,-0.14365190437445108,0.7130552055079988)"><svg viewBox="0 0 281 247" data-background-color="#ffffff" preserveAspectRatio="xMidYMid meet" height="1758" width="2000" xmlns="http://www.w3.org/2000/svg" xmlns:xlink="http://www.w3.org/1999/xlink"><g id="tight-bounds" transform="matrix(1,0,0,1,0.02042489724948382,-0.09997365579206985)"><svg viewBox="0 0 280.95928000000004 247.2" height="247.2" width="280.95928000000004"><g><svg viewBox="0 0 280.95928000000004 247.2" height="247.2" width="280.95928000000004"><g><svg viewBox="0 0 280.95928000000004 247.2" height="247.2" width="280.95928000000004"><g id="textblocktransform"><svg viewBox="0 0 280.95928000000004 247.2" height="247.2" width="280.95928000000004" id="textblock"><g><svg viewBox="0 0 280.95928000000004 247.2" height="247.2" width="280.95928000000004"><path d="M280.301 53.02C278.981 27.36 275.216 20.227 275.216 20.227 263.659-6.202 249.235-0.506 236.278 3.292 213.4 3.446 190.616 9.091 167.792 12.119 119.884 12.581 71.568 4.986 23.898 23.717 19.42 29.464-4.645 24.846 0.796 56.304 2.223 69.39 7.427 83.913 7.269 95.922 7.982 98.026 8.973 93.202 9.395 96.23 10.875 104.39 13.292 100.541 15.273 105.365 12.512 118.246 14.494 128.971 16.382 140.21 13.054 143.135 8.788 141.749 6.872 151.449 6.674 158.479 5.604 157.145 4.429 156.837 3.57 156.632 1.84 157.402 2.131 159.608 3.121 167.152-1.132 171.514 1.536 178.904-0.3 186.91 2.804 193.838 2.381 202.511 2.329 204.255 2.619 205.744 3.082 206.154 5.129 208.361 2.144 212.672 2.461 217.342 23.462 249.262 46.247 227.195 67.764 241.872 73.351 231.608 69.15 245.516 71.383 243.36 73.126 240.846 74.394 251.263 76.362 245.362 76.666 243.668 76.204 239.665 77.287 240.435 77.855 240.846 78.357 240.743 78.436 238.382 78.555 234.841 77.511 237.048 77.234 235.201 80.232 225.861 79.493 248.081 82.306 247.158 82.174 244.438 81.355 240.538 83.033 241.051 84.697 237.151 84.75 233.918 86.229 242.693 86.282 244.592 86.546 245.926 86.969 246.85 91.592 237.305 96.188 250.237 101.036 245.926 104.008 241.205 106.861 248.492 109.872 246.696 110.929 245.259 111.999 242.693 113.016 247.004 125.471 247.928 138.746 244.079 150.554 247.158 182.11 241.41 215.831 249.518 249.103 241.923 256.949 238.998 265.099 234.841 272.746 231.506 272.746 231.506 278.941 222.371 278.941 181.316S280.262 145.393 280.46 112.703C280.658 80.013 281.583 78.679 280.262 53.02Z" opacity="1" fill="#ff0000" data-fill-palette-color="tertiary"></path><g transform="matrix(1,0,0,1,55.76832000000002,26.230666666666668)"><svg width="169.42264" viewBox="0.12999999523162842 -35 30.450000762939453 35" height="194.73866666666666" data-palette-color="#ffffff"><path d="M18.07 0L12.63 0 0.13-35 5.73-35 16.03-5.83 14.65-5.83 24.95-35 30.58-35 18.07 0Z" opacity="1" transform="matrix(1,0,0,1,0,0)" fill="#ffffff" class="undefined-text-0" data-fill-palette-color="quaternary" id="text-0"></path></svg></g></svg></g></svg></g></svg></g><g></g></svg></g><defs></defs></svg><rect width="280.95928000000004" height="247.2" fill="none" stroke="none" visibility="hidden"></rect></g></svg></g></svg>